<svg width="30" height="21" viewBox="0 0 30 21" fill="none" xmlns="http://www.w3.org/2000/svg">
<g clip-path="url(#clip0_179_1163)">
<path d="M0 0H30V21.0002H0V0Z" fill="white"/>
<path d="M16.875 -0.000305176H13.125V8.53091H0V12.4684H13.125V20.9996H16.875V12.4684H30V8.53091H16.875V-0.000305176Z" fill="#D80027"/>
<path d="M23.0733 14.1519L30 18.1925V14.1519H23.0733ZM18.2609 14.1519L30 20.9997V19.0633L21.5805 14.1519H18.2609ZM26.8731 20.9997L18.2609 15.9755V20.9997H26.8731Z" fill="#0052B4"/>
<path d="M18.2609 14.1519L30 20.9997V19.0633L21.5805 14.1519H18.2609Z" fill="white"/>
<path d="M18.2609 14.1519L30 20.9997V19.0633L21.5805 14.1519H18.2609Z" fill="#D80027"/>
<path d="M5.29342 14.1518L0 17.2397V14.1518H5.29342ZM11.7391 15.0226V20.9997H1.49361L11.7391 15.0226Z" fill="#0052B4"/>
<path d="M8.41951 14.1519L0 19.0633V20.9997L11.7391 14.1519H8.41951Z" fill="#D80027"/>
<path d="M6.92666 6.84751L0 2.80689V6.84751H6.92666ZM11.7391 6.84751L0 -0.000305176V1.93609L8.41951 6.84751H11.7391ZM3.12691 -0.000305176L11.7391 5.02395V-0.000305176H3.12691Z" fill="#0052B4"/>
<path d="M11.7391 6.84751L0 -0.000305176V1.93609L8.41951 6.84751H11.7391Z" fill="white"/>
<path d="M11.7391 6.84751L0 -0.000305176V1.93609L8.41951 6.84751H11.7391Z" fill="#D80027"/>
<path d="M24.7066 6.84775L30 3.75989V6.84775H24.7066ZM18.2609 5.97695V-0.00012207H28.5064L18.2609 5.97695Z" fill="#0052B4"/>
<path d="M21.5805 6.84763L30 1.93621V-0.000183105L18.2609 6.84763H21.5805Z" fill="#D80027"/>
</g>
<defs>
<clipPath id="clip0_179_1163">
<rect width="30" height="21" fill="white"/>
</clipPath>
</defs>
</svg>
